<svg width="9" height="9" viewBox="0 0 9 9" fill="none" xmlns="http://www.w3.org/2000/svg">
<g clip-path="url(#clip0_113_919)">
<path d="M8.19037 2.28412L6.71588 0.809631C6.55765 0.651397 6.34304 0.562501 6.11926 0.5625H1.40625C0.940254 0.5625 0.5625 0.940254 0.5625 1.40625V7.59375C0.5625 8.05975 0.940254 8.4375 1.40625 8.4375H7.59375C8.05975 8.4375 8.4375 8.05975 8.4375 7.59375V2.88074C8.4375 2.65696 8.3486 2.44235 8.19037 2.28412ZM4.5 7.3125C3.87868 7.3125 3.375 6.80882 3.375 6.1875C3.375 5.56618 3.87868 5.0625 4.5 5.0625C5.12132 5.0625 5.625 5.56618 5.625 6.1875C5.625 6.80882 5.12132 7.3125 4.5 7.3125ZM6.1875 1.95961V3.72656C6.1875 3.84305 6.09305 3.9375 5.97656 3.9375H1.89844C1.78195 3.9375 1.6875 3.84305 1.6875 3.72656V1.89844C1.6875 1.78195 1.78195 1.6875 1.89844 1.6875H5.91539C5.97134 1.6875 6.02499 1.70972 6.06454 1.74929L6.12571 1.81046C6.1453 1.83004 6.16084 1.8533 6.17145 1.87889C6.18205 1.90448 6.1875 1.93191 6.1875 1.95961Z" fill="#838383"/>
</g>
<defs>
<clipPath id="clip0_113_919">
<rect width="9" height="9" fill="white"/>
</clipPath>
</defs>
</svg>
